# xmcd
#
# Track frame offsets:
#	150
#	18634
#	35732
#	47270
#	60493
#	76298
#	92080
#	105850
#	124866
#	140405
#	159108
#	174059
#	190775
#	204094
#	221960
#	235740
#	251381
#	263013
#
# Disc length: 3718 seconds
#
# Revision: 1
# Processed by: cddbd v1.5.1PL0 Copyright (c) Steve Scherf et al.
# Submitted via: EasyCDDAExtractor 5.1.0
#
DISCID=dc0e8412
DTITLE=Various Artist - perso
DYEAR=2005
DGENRE=Country
TTITLE0=Mony Mony
TTITLE1=If You're Gonna Play in Texas
TTITLE2=Sunday Drive
TTITLE3=honky tonk stomp
TTITLE4=child factor
TTITLE5=hooked on country
TTITLE6=Drinkin`dark whiskey
TTITLE7=Somewhere Between Right And Wr
TTITLE8=08 - Lacy J. Dalton - Restless
TTITLE9=LEVANTANDO LAS MANOS
TTITLE10=Crime Of Passion
TTITLE11=compil - J 'AI DU BOOGIE ji du boogie
TTITLE12=Up!
TTITLE13=Just A Kiss
TTITLE14=Hey baby que paso
TTITLE15=Sugar And Pai
TTITLE16=Hillbilly Rock Hillbilly Roll
TTITLE17=I'm From The Country
EXTD=
EXTT0=
EXTT1=
EXTT2=
EXTT3=
EXTT4=
EXTT5=
EXTT6=
EXTT7=
EXTT8=
EXTT9=
EXTT10=
EXTT11=
EXTT12=
EXTT13=
EXTT14=
EXTT15=
EXTT16=
EXTT17=
PLAYORDER=
